<?xml version="1.0" standalone="no"?><!DOCTYPE svg PUBLIC "-//W3C//DTD SVG 1.1//EN" "http://www.w3.org/Graphics/SVG/1.1/DTD/svg11.dtd"><svg t="1768874647753" class="icon" viewBox="0 0 1029 1024" version="1.1" xmlns="http://www.w3.org/2000/svg" p-id="5305" xmlns:xlink="http://www.w3.org/1999/xlink" width="48.234375" height="48"><path d="M309.76 647.68c-74.24-30.72-145.92-61.44-227.84-30.72 38.4 25.6 76.8 51.2 112.64 76.8 35.84 23.04 66.56 53.76 104.96 71.68 66.56 33.28 135.68 38.4 197.12-5.12 66.56-43.52 84.48-112.64 79.36-189.44-2.56-35.84-15.36-69.12-38.4-99.84-17.92-25.6-30.72-28.16-53.76-2.56-48.64 53.76-58.88 117.76-51.2 186.88 0 10.24 2.56 17.92 5.12 30.72-25.6-20.48-40.96-46.08-56.32-71.68-56.32-92.16-33.28-181.76 33.28-253.44 30.72-33.28 69.12-61.44 104.96-92.16 2.56-2.56 7.68-5.12 12.8-7.68 2.56 40.96 33.28 61.44 58.88 84.48 76.8 76.8 104.96 168.96 76.8 276.48-25.6 97.28-112.64 204.8-245.76 220.16-87.04 10.24-168.96 2.56-243.2-40.96-64-35.84-104.96-89.6-138.24-151.04-12.8-23.04-25.6-43.52-38.4-66.56 51.2-20.48 104.96-17.92 163.84 0-5.12-5.12-5.12-7.68-7.68-10.24-51.2-35.84-61.44-87.04-61.44-140.8v-104.96c79.36-12.8 230.4 35.84 240.64 135.68-46.08-43.52-89.6-87.04-158.72-87.04v7.68c30.72 30.72 40.96 69.12 51.2 110.08 20.48 53.76 38.4 110.08 79.36 153.6z" fill="#be9568" p-id="5306"></path><path d="M207.36 888.32c17.92 5.12 35.84 7.68 51.2 12.8 20.48 7.68 43.52 0 58.88-5.12 15.36-7.68 25.6-5.12 38.4-2.56 107.52 15.36 215.04 5.12 309.76-51.2 33.28-20.48 64-48.64 89.6-76.8 56.32-58.88 107.52-120.32 181.76-161.28 2.56 0 5.12-2.56 10.24-7.68-84.48-33.28-158.72-2.56-235.52 35.84 15.36-23.04 30.72-38.4 38.4-56.32 12.8-28.16 25.6-58.88 35.84-89.6 15.36-46.08 30.72-92.16 69.12-125.44-38.4-7.68-61.44 5.12-158.72 79.36 20.48-92.16 130.56-143.36 235.52-133.12-5.12 48.64-7.68 97.28-17.92 145.92-5.12 28.16-20.48 53.76-33.28 81.92-2.56 5.12-7.68 10.24-15.36 20.48 58.88-12.8 112.64-17.92 163.84 2.56-20.48 46.08-35.84 92.16-56.32 133.12-64 125.44-174.08 197.12-307.2 230.4-120.32 30.72-243.2 30.72-363.52 5.12-38.4-5.12-66.56-20.48-97.28-30.72 0-2.56 0-5.12 2.56-7.68zM565.76 161.28c0 35.84-15.36 61.44-43.52 79.36-5.12 2.56-15.36 5.12-20.48 0-30.72-20.48-46.08-48.64-46.08-87.04 0-35.84 23.04-58.88 51.2-76.8 5.12 0 12.8 0 17.92 5.12 25.6 20.48 38.4 48.64 40.96 79.36z" fill="#be9568" p-id="5307"></path></svg>