<svg t="1768875098563" class="icon" viewBox="0 0 1365 1024" version="1.1" xmlns="http://www.w3.org/2000/svg" p-id="16930" width="16" height="16"><path d="M33.359375 763.6221875c-9.5390625 60.2390625 33.78 94.839375 55.9003125 105.339375 22.119375 10.479375 59.319375 0 73.899375 0 109.2590625 10.479375 343.8365625 123.01875 636.1940625 123.01875 0 0 473.0953125 6.9796875 509.355-337.9575 8.619375-89.559375 4.5796875-260.116875-66.6-268.276875-59.95875-7.9003125-95.7384375 3.819375-171.8578125 19.2796875-50.5396875 10.239375-177.19875 28.0996875-199.618125 42.159375-244.678125 111.2990625-378.11625 191.59875-414.65625 203.5584375-27.6 0-51.5390625-6.9-58.21875-65.5996875 0-24.099375 91.959375-81.6 131.3784375-90.8990625 142.858125-37.68 249.4575-54.1190625 261.976875-54.1190625 18.06 0 413.896875-95.2396875 426.0365625-104.2396875 12.1396875-9 24.96-17.799375 24.96-49.2590625 0-14.4-31.6996875-46.56-67.8-85.7390625-42.819375-46.4596875-93.6984375-100.3996875-131.818125-113.2396875-70.239375-36-207.91875-65.8790625-328.1971875-52.299375-263.296875 29.7196875-427.5965625 317.896875-441.89625 337.8975-60.79875 85.03875-109.2590625 192.7378125-134.698125 240.2775C113.1396875 659.4425 42.98 721.2021875 33.359375 763.6221875z" fill="#f7af45" p-id="16931"></path></svg>
